<?xml version="1.0" standalone="no"?>
<!DOCTYPE svg PUBLIC "-//W3C//DTD SVG 20010904//EN"
 "http://www.w3.org/TR/2001/REC-SVG-20010904/DTD/svg10.dtd">
<svg version="1.0" xmlns="http://www.w3.org/2000/svg"
 width="512.000000pt" height="427.000000pt" viewBox="0 0 512.000000 427.000000"
 preserveAspectRatio="xMidYMid meet">

<g transform="translate(0.000000,427.000000) scale(0.100000,-0.100000)"
fill="#000000" stroke="none">
<path d="M1685 4259 c-137 -13 -257 -71 -361 -175 -165 -164 -223 -406 -150
-624 35 -102 80 -171 163 -250 167 -160 395 -209 616 -132 103 35 181 86 251
164 219 242 211 614 -19 843 -130 130 -307 192 -500 174z"/>
<path d="M999 3699 c-222 -165 -466 -466 -652 -804 -83 -151 -194 -398 -208
-466 -28 -132 36 -262 170 -343 31 -19 123 -61 204 -94 227 -93 280 -131 317
-229 34 -90 49 -113 97 -143 85 -54 183 -49 258 13 95 78 99 221 10 382 -86
155 -226 261 -483 366 l-113 46 80 159 c90 180 161 296 265 434 l71 95 3 -408
2 -407 98 -98 c104 -102 153 -180 186 -291 57 -195 -45 -366 -232 -388 -126
-15 -248 69 -291 200 -32 95 -77 128 -301 217 -56 22 -124 52 -151 65 l-48 25
-17 -25 c-28 -43 -43 -98 -44 -161 0 -33 47 -406 104 -827 82 -600 110 -776
127 -816 28 -67 117 -150 186 -174 56 -20 158 -24 211 -8 115 34 206 135 233
259 9 43 0 121 -61 576 -40 290 -69 530 -66 533 3 3 123 -22 267 -56 226 -55
271 -63 332 -59 85 5 148 32 207 89 34 33 47 39 83 39 39 0 43 -3 43 -22 -1
-16 13 -32 47 -55 106 -71 164 -70 489 7 138 34 257 59 263 58 8 -2 -10 -155
-57 -498 -76 -549 -79 -611 -38 -695 98 -201 370 -251 528 -97 90 88 83 57
204 941 97 710 108 802 98 850 -13 68 -40 126 -79 168 l-29 33 -62 -42 c-34
-23 -136 -72 -226 -109 -227 -93 -272 -124 -293 -204 -35 -133 -165 -225 -299
-212 -110 11 -206 94 -238 205 -14 48 -15 66 -5 121 27 148 118 298 237 394
l64 50 2 410 3 409 67 -89 c36 -48 95 -133 129 -188 66 -104 209 -379 209
-401 0 -7 -33 -25 -72 -40 -329 -124 -513 -292 -573 -525 -14 -54 -15 -73 -5
-118 21 -93 116 -171 210 -171 94 0 186 74 215 175 28 99 91 146 315 235 222
89 299 142 349 242 26 52 31 73 31 135 0 89 -31 173 -157 423 -146 291 -300
515 -493 714 -95 98 -234 219 -286 249 -8 5 -12 -22 -12 -96 0 -164 -46 -298
-142 -418 -89 -111 -182 -176 -315 -221 -70 -24 -80 -30 -78 -50 1 -13 30
-229 63 -480 l62 -458 -124 -157 c-68 -86 -129 -158 -134 -159 -16 -5 -254
307 -254 332 0 13 27 221 60 463 33 242 60 451 60 465 0 21 -6 25 -41 31 -56
10 -182 75 -252 130 -101 80 -195 230 -228 365 -7 30 -14 101 -14 158 0 56 -1
102 -2 102 -1 0 -38 -28 -84 -61z"/>
<path d="M3997 1393 c-4 -3 -7 -64 -7 -135 l0 -128 -140 0 -140 0 0 -545 0
-545 705 0 705 0 0 545 0 545 -140 0 -139 0 -3 133 -3 132 -416 3 c-228 1
-418 -1 -422 -5z m713 -193 l0 -70 -295 0 -295 0 0 70 0 70 295 0 295 0 0 -70z"/>
<path d="M0 600 l0 -530 215 0 c118 0 215 4 215 9 0 5 -6 14 -14 20 -7 6 -25
38 -40 70 -22 51 -35 125 -86 497 -33 240 -60 443 -60 450 0 11 -25 14 -115
14 l-115 0 0 -530z"/>
<path d="M1070 1109 c0 -12 23 -186 51 -388 34 -250 48 -383 45 -418 -8 -70
-32 -139 -67 -190 l-28 -43 749 0 750 0 -31 47 c-39 62 -60 138 -61 216 0 51
80 678 98 770 l6 27 -756 0 -756 0 0 -21z"/>
<path d="M3415 1118 c-2 -7 -29 -202 -60 -433 -31 -231 -61 -438 -66 -460 -10
-38 -26 -71 -64 -128 l-17 -27 171 0 171 0 0 530 0 530 -65 0 c-44 0 -67 -4
-70 -12z"/>
</g>
</svg>
